<svg width="342" height="54" viewBox="0 0 342 54" fill="none" xmlns="http://www.w3.org/2000/svg">
<path d="M3.672 28.68V23.208H15.264V11.616H20.736V23.208H32.328V28.68H20.736V40.272H15.264V28.68H3.672ZM43.92 38.112C44.112 40.752 45 42.84 46.584 44.376C48.216 45.864 50.76 46.608 54.216 46.608C55.704 46.608 57.096 46.368 58.392 45.888C59.688 45.408 60.816 44.712 61.776 43.8C62.784 42.888 63.576 41.736 64.152 40.344C64.728 38.952 65.016 37.368 65.016 35.592C65.016 31.992 64.032 29.184 62.064 27.168C60.096 25.152 57.528 24.024 54.36 23.784C51.048 23.64 48.216 24.816 45.864 27.312L40.104 25.44L45.072 1.68H69.336V7.8H49.608L46.8 20.832C48.048 20.016 49.368 19.44 50.76 19.104C52.152 18.72 53.544 18.528 54.936 18.528C57.336 18.528 59.52 18.936 61.488 19.752C63.504 20.52 65.208 21.648 66.6 23.136C68.04 24.576 69.144 26.328 69.912 28.392C70.68 30.408 71.064 32.688 71.064 35.232C71.064 37.68 70.68 39.912 69.912 41.928C69.144 43.944 68.016 45.696 66.528 47.184C65.04 48.672 63.24 49.824 61.128 50.64C59.064 51.456 56.688 51.864 54 51.864C51.408 51.864 49.128 51.528 47.16 50.856C45.192 50.184 43.536 49.248 42.192 48.048C40.848 46.8 39.84 45.336 39.168 43.656C38.496 41.976 38.184 40.128 38.232 38.112H43.92ZM74.9334 26.304C74.9334 22.704 75.2454 19.368 75.8694 16.296C76.4934 13.176 77.5254 10.488 78.9654 8.232C80.4054 5.928 82.3014 4.128 84.6534 2.832C87.0054 1.536 89.9094 0.887997 93.3654 0.887997C96.8214 0.887997 99.7014 1.56 102.005 2.904C104.357 4.2 106.253 6 107.693 8.304C109.133 10.56 110.141 13.248 110.717 16.368C111.341 19.44 111.653 22.752 111.653 26.304C111.653 29.856 111.365 33.192 110.789 36.312C110.213 39.384 109.229 42.072 107.837 44.376C106.445 46.68 104.573 48.504 102.221 49.848C99.8694 51.144 96.9174 51.792 93.3654 51.792C89.7654 51.792 86.7894 51.144 84.4374 49.848C82.0854 48.504 80.1894 46.704 78.7494 44.448C77.3574 42.144 76.3734 39.456 75.7974 36.384C75.2214 33.264 74.9334 29.904 74.9334 26.304ZM93.3654 46.32C96.1494 46.32 98.3334 45.696 99.9174 44.448C101.549 43.2 102.773 41.616 103.589 39.696C104.405 37.728 104.909 35.568 105.101 33.216C105.341 30.864 105.461 28.584 105.461 26.376C105.461 24.12 105.341 21.84 105.101 19.536C104.909 17.184 104.381 15.048 103.517 13.128C102.701 11.16 101.477 9.576 99.8454 8.376C98.2614 7.128 96.0774 6.504 93.2934 6.504C90.5094 6.504 88.3014 7.128 86.6694 8.376C85.0854 9.576 83.8854 11.136 83.0694 13.056C82.2534 14.976 81.7254 17.112 81.4854 19.464C81.2934 21.816 81.1974 24.12 81.1974 26.376C81.1974 28.632 81.2934 30.96 81.4854 33.36C81.7254 35.712 82.2534 37.848 83.0694 39.768C83.9334 41.688 85.1574 43.272 86.7414 44.52C88.3734 45.72 90.5814 46.32 93.3654 46.32ZM115.996 26.304C115.996 22.704 116.308 19.368 116.932 16.296C117.556 13.176 118.588 10.488 120.028 8.232C121.468 5.928 123.364 4.128 125.716 2.832C128.068 1.536 130.972 0.887997 134.428 0.887997C137.884 0.887997 140.764 1.56 143.068 2.904C145.42 4.2 147.316 6 148.756 8.304C150.196 10.56 151.204 13.248 151.78 16.368C152.404 19.44 152.716 22.752 152.716 26.304C152.716 29.856 152.428 33.192 151.852 36.312C151.276 39.384 150.292 42.072 148.9 44.376C147.508 46.68 145.636 48.504 143.284 49.848C140.932 51.144 137.98 51.792 134.428 51.792C130.828 51.792 127.852 51.144 125.5 49.848C123.148 48.504 121.252 46.704 119.812 44.448C118.42 42.144 117.436 39.456 116.86 36.384C116.284 33.264 115.996 29.904 115.996 26.304ZM134.428 46.32C137.212 46.32 139.396 45.696 140.98 44.448C142.612 43.2 143.836 41.616 144.652 39.696C145.468 37.728 145.972 35.568 146.164 33.216C146.404 30.864 146.524 28.584 146.524 26.376C146.524 24.12 146.404 21.84 146.164 19.536C145.972 17.184 145.444 15.048 144.58 13.128C143.764 11.16 142.54 9.576 140.908 8.376C139.324 7.128 137.14 6.504 134.356 6.504C131.572 6.504 129.364 7.128 127.732 8.376C126.148 9.576 124.948 11.136 124.132 13.056C123.316 14.976 122.788 17.112 122.548 19.464C122.356 21.816 122.26 24.12 122.26 26.376C122.26 28.632 122.356 30.96 122.548 33.36C122.788 35.712 123.316 37.848 124.132 39.768C124.996 41.688 126.22 43.272 127.804 44.52C129.436 45.72 131.644 46.32 134.428 46.32ZM157.058 26.304C157.058 22.704 157.37 19.368 157.994 16.296C158.618 13.176 159.65 10.488 161.09 8.232C162.53 5.928 164.426 4.128 166.778 2.832C169.13 1.536 172.034 0.887997 175.49 0.887997C178.946 0.887997 181.826 1.56 184.13 2.904C186.482 4.2 188.378 6 189.818 8.304C191.258 10.56 192.266 13.248 192.842 16.368C193.466 19.44 193.778 22.752 193.778 26.304C193.778 29.856 193.49 33.192 192.914 36.312C192.338 39.384 191.354 42.072 189.962 44.376C188.57 46.68 186.698 48.504 184.346 49.848C181.994 51.144 179.042 51.792 175.49 51.792C171.89 51.792 168.914 51.144 166.562 49.848C164.21 48.504 162.314 46.704 160.874 44.448C159.482 42.144 158.498 39.456 157.922 36.384C157.346 33.264 157.058 29.904 157.058 26.304ZM175.49 46.32C178.274 46.32 180.458 45.696 182.042 44.448C183.674 43.2 184.898 41.616 185.714 39.696C186.53 37.728 187.034 35.568 187.226 33.216C187.466 30.864 187.586 28.584 187.586 26.376C187.586 24.12 187.466 21.84 187.226 19.536C187.034 17.184 186.506 15.048 185.642 13.128C184.826 11.16 183.602 9.576 181.97 8.376C180.386 7.128 178.202 6.504 175.418 6.504C172.634 6.504 170.426 7.128 168.794 8.376C167.21 9.576 166.01 11.136 165.194 13.056C164.378 14.976 163.85 17.112 163.61 19.464C163.418 21.816 163.322 24.12 163.322 26.376C163.322 28.632 163.418 30.96 163.61 33.36C163.85 35.712 164.378 37.848 165.194 39.768C166.058 41.688 167.282 43.272 168.866 44.52C170.498 45.72 172.706 46.32 175.49 46.32Z" fill="white"/>
<path d="M204.056 29H201.824V12.584H207.464C208.088 12.584 208.72 12.664 209.36 12.824C210.016 12.968 210.608 13.232 211.136 13.616C211.664 14 212.088 14.512 212.408 15.152C212.744 15.792 212.912 16.608 212.912 17.6C212.912 18.512 212.768 19.296 212.48 19.952C212.192 20.608 211.8 21.152 211.304 21.584C210.808 22 210.224 22.312 209.552 22.52C208.896 22.728 208.192 22.832 207.44 22.832H204.056V29ZM204.056 21.032H207.32C207.704 21.032 208.096 20.992 208.496 20.912C208.896 20.832 209.256 20.672 209.576 20.432C209.912 20.176 210.176 19.824 210.368 19.376C210.576 18.912 210.68 18.312 210.68 17.576C210.68 16.856 210.56 16.288 210.32 15.872C210.08 15.456 209.784 15.144 209.432 14.936C209.08 14.712 208.704 14.576 208.304 14.528C207.92 14.464 207.584 14.432 207.296 14.432H204.056V21.032ZM214.636 29V16.616H216.796V18.992C217.1 18.432 217.452 17.952 217.852 17.552C218.252 17.152 218.708 16.848 219.22 16.64C219.492 16.544 219.772 16.472 220.06 16.424C220.364 16.36 220.676 16.336 220.996 16.352V18.392C220.404 18.376 219.844 18.464 219.316 18.656C218.452 18.976 217.812 19.512 217.396 20.264C216.996 21.016 216.796 21.848 216.796 22.76V29H214.636ZM221.835 22.88C221.835 22.016 221.971 21.192 222.243 20.408C222.515 19.624 222.907 18.936 223.419 18.344C223.947 17.736 224.587 17.256 225.339 16.904C226.091 16.536 226.947 16.352 227.907 16.352C228.867 16.352 229.723 16.536 230.475 16.904C231.227 17.256 231.859 17.736 232.371 18.344C232.899 18.936 233.299 19.624 233.571 20.408C233.843 21.192 233.979 22.016 233.979 22.88C233.979 23.808 233.819 24.664 233.499 25.448C233.195 26.232 232.771 26.904 232.227 27.464C231.683 28.024 231.043 28.464 230.307 28.784C229.571 29.104 228.771 29.264 227.907 29.264C227.059 29.264 226.259 29.104 225.507 28.784C224.771 28.464 224.131 28.024 223.587 27.464C223.043 26.904 222.611 26.232 222.291 25.448C221.987 24.664 221.835 23.808 221.835 22.88ZM227.907 27.248C228.515 27.248 229.067 27.136 229.563 26.912C230.059 26.672 230.475 26.352 230.811 25.952C231.163 25.552 231.427 25.088 231.603 24.56C231.795 24.016 231.891 23.44 231.891 22.832C231.891 22.208 231.795 21.632 231.603 21.104C231.427 20.56 231.163 20.088 230.811 19.688C230.475 19.272 230.059 18.952 229.563 18.728C229.067 18.488 228.515 18.368 227.907 18.368C227.299 18.368 226.747 18.488 226.251 18.728C225.771 18.952 225.355 19.272 225.003 19.688C224.667 20.088 224.403 20.56 224.211 21.104C224.035 21.632 223.947 22.208 223.947 22.832C223.947 23.44 224.035 24.016 224.211 24.56C224.403 25.088 224.667 25.552 225.003 25.952C225.355 26.352 225.771 26.672 226.251 26.912C226.747 27.136 227.299 27.248 227.907 27.248ZM238.548 16.616H242.652V18.368H238.5V29.024H236.364V18.368H234.108V16.616H236.364V16.016C236.364 15.408 236.46 14.872 236.652 14.408C236.86 13.928 237.132 13.52 237.468 13.184C237.82 12.848 238.22 12.584 238.668 12.392C239.116 12.2 239.58 12.08 240.06 12.032C240.572 11.984 241.092 12.024 241.62 12.152C242.148 12.264 242.644 12.472 243.108 12.776V15.104C242.9 14.784 242.588 14.544 242.172 14.384C241.772 14.208 241.348 14.12 240.9 14.12C240.612 14.12 240.324 14.16 240.036 14.24C239.748 14.32 239.492 14.44 239.268 14.6C239.06 14.744 238.884 14.944 238.74 15.2C238.612 15.44 238.548 15.728 238.548 16.064V16.616ZM245.164 23.024C245.164 23.696 245.268 24.296 245.476 24.824C245.684 25.352 245.964 25.8 246.316 26.168C246.668 26.536 247.076 26.824 247.54 27.032C248.02 27.24 248.532 27.36 249.076 27.392C249.924 27.44 250.692 27.272 251.38 26.888C252.084 26.488 252.564 25.8 252.82 24.824H254.836C254.692 25.608 254.436 26.288 254.068 26.864C253.7 27.424 253.26 27.888 252.748 28.256C252.236 28.608 251.668 28.864 251.044 29.024C250.42 29.2 249.78 29.288 249.124 29.288C248.308 29.288 247.524 29.144 246.772 28.856C246.036 28.552 245.388 28.128 244.828 27.584C244.284 27.024 243.844 26.344 243.508 25.544C243.188 24.744 243.028 23.824 243.028 22.784C243.028 21.936 243.164 21.128 243.436 20.36C243.708 19.576 244.092 18.888 244.588 18.296C245.1 17.704 245.724 17.24 246.46 16.904C247.212 16.552 248.052 16.376 248.98 16.376C249.988 16.376 250.852 16.552 251.572 16.904C252.308 17.24 252.916 17.712 253.396 18.32C253.892 18.912 254.268 19.616 254.524 20.432C254.78 21.232 254.924 22.096 254.956 23.024H245.164ZM252.7 21.488C252.508 20.544 252.084 19.768 251.428 19.16C250.788 18.552 249.964 18.248 248.956 18.248C247.98 18.248 247.164 18.552 246.508 19.16C245.868 19.768 245.46 20.544 245.284 21.488H252.7ZM258.566 25.64C258.694 26.36 259.03 26.856 259.574 27.128C260.134 27.384 260.766 27.512 261.47 27.512C262.238 27.512 262.886 27.368 263.414 27.08C263.942 26.792 264.206 26.32 264.206 25.664C264.206 25.216 264.07 24.856 263.798 24.584C263.526 24.312 263.054 24.088 262.382 23.912L259.91 23.24C258.966 22.984 258.206 22.608 257.63 22.112C257.054 21.616 256.766 20.912 256.766 20C256.766 19.36 256.894 18.808 257.15 18.344C257.422 17.88 257.774 17.504 258.206 17.216C258.638 16.912 259.134 16.696 259.694 16.568C260.27 16.424 260.862 16.352 261.47 16.352C263.022 16.352 264.206 16.68 265.022 17.336C265.854 17.976 266.286 18.864 266.318 20H264.278C264.23 19.632 264.126 19.328 263.966 19.088C263.806 18.832 263.598 18.632 263.342 18.488C263.102 18.328 262.814 18.224 262.478 18.176C262.158 18.112 261.814 18.08 261.446 18.08C261.11 18.08 260.79 18.12 260.486 18.2C260.198 18.264 259.934 18.376 259.694 18.536C259.47 18.68 259.286 18.872 259.142 19.112C259.014 19.352 258.95 19.64 258.95 19.976C258.95 20.408 259.118 20.76 259.454 21.032C259.79 21.304 260.286 21.528 260.942 21.704L263.27 22.328C264.198 22.584 264.95 22.96 265.526 23.456C266.102 23.952 266.39 24.656 266.39 25.568C266.39 26.208 266.254 26.76 265.982 27.224C265.71 27.688 265.35 28.072 264.902 28.376C264.454 28.68 263.942 28.896 263.366 29.024C262.79 29.168 262.198 29.24 261.59 29.24C260.054 29.24 258.83 28.92 257.918 28.28C257.022 27.64 256.566 26.76 256.55 25.64H258.566ZM268.635 14.816V12.512H271.011V14.816H268.635ZM268.731 29V16.616H270.891V29H268.731ZM272.999 22.88C272.999 22.016 273.135 21.192 273.407 20.408C273.679 19.624 274.071 18.936 274.583 18.344C275.111 17.736 275.751 17.256 276.503 16.904C277.255 16.536 278.111 16.352 279.071 16.352C280.031 16.352 280.887 16.536 281.639 16.904C282.391 17.256 283.023 17.736 283.535 18.344C284.063 18.936 284.463 19.624 284.735 20.408C285.007 21.192 285.143 22.016 285.143 22.88C285.143 23.808 284.983 24.664 284.663 25.448C284.359 26.232 283.935 26.904 283.391 27.464C282.847 28.024 282.207 28.464 281.471 28.784C280.735 29.104 279.935 29.264 279.071 29.264C278.223 29.264 277.423 29.104 276.671 28.784C275.935 28.464 275.295 28.024 274.751 27.464C274.207 26.904 273.775 26.232 273.455 25.448C273.151 24.664 272.999 23.808 272.999 22.88ZM279.071 27.248C279.679 27.248 280.231 27.136 280.727 26.912C281.223 26.672 281.639 26.352 281.975 25.952C282.327 25.552 282.591 25.088 282.767 24.56C282.959 24.016 283.055 23.44 283.055 22.832C283.055 22.208 282.959 21.632 282.767 21.104C282.591 20.56 282.327 20.088 281.975 19.688C281.639 19.272 281.223 18.952 280.727 18.728C280.231 18.488 279.679 18.368 279.071 18.368C278.463 18.368 277.911 18.488 277.415 18.728C276.935 18.952 276.519 19.272 276.167 19.688C275.831 20.088 275.567 20.56 275.375 21.104C275.199 21.632 275.111 22.208 275.111 22.832C275.111 23.44 275.199 24.016 275.375 24.56C275.567 25.088 275.831 25.552 276.167 25.952C276.519 26.352 276.935 26.672 277.415 26.912C277.911 27.136 278.463 27.248 279.071 27.248ZM287.27 29V16.616H289.43V18.992C289.638 18.608 289.886 18.256 290.174 17.936C290.462 17.6 290.782 17.312 291.134 17.072C291.502 16.832 291.894 16.648 292.31 16.52C292.726 16.376 293.158 16.312 293.606 16.328C294.134 16.344 294.646 16.472 295.142 16.712C295.638 16.936 296.078 17.28 296.462 17.744C296.846 18.208 297.15 18.792 297.374 19.496C297.614 20.184 297.734 21 297.734 21.944V29H295.598V22.112C295.598 20.96 295.39 20.048 294.974 19.376C294.558 18.688 293.846 18.344 292.838 18.344C292.262 18.344 291.758 18.488 291.326 18.776C290.91 19.048 290.558 19.408 290.27 19.856C289.998 20.288 289.79 20.776 289.646 21.32C289.502 21.848 289.43 22.376 289.43 22.904V29H287.27ZM308.196 29V26.768C307.764 27.536 307.18 28.136 306.444 28.568C305.708 28.984 304.956 29.208 304.188 29.24C303.644 29.272 303.1 29.216 302.556 29.072C302.028 28.944 301.556 28.728 301.14 28.424C300.74 28.12 300.412 27.736 300.156 27.272C299.9 26.792 299.772 26.232 299.772 25.592C299.772 24.808 299.924 24.16 300.228 23.648C300.532 23.136 300.924 22.736 301.404 22.448C301.9 22.144 302.452 21.936 303.06 21.824C303.668 21.712 304.268 21.656 304.86 21.656H307.38C307.716 21.656 307.932 21.576 308.028 21.416C308.14 21.24 308.188 21.008 308.172 20.72C308.172 20.192 308.076 19.768 307.884 19.448C307.692 19.128 307.452 18.88 307.164 18.704C306.892 18.512 306.588 18.384 306.252 18.32C305.932 18.256 305.628 18.224 305.34 18.224C305.052 18.224 304.732 18.256 304.38 18.32C304.028 18.368 303.7 18.48 303.396 18.656C303.108 18.816 302.86 19.056 302.652 19.376C302.46 19.696 302.364 20.12 302.364 20.648H300.348C300.348 19.864 300.492 19.2 300.78 18.656C301.084 18.112 301.468 17.672 301.932 17.336C302.412 17 302.956 16.76 303.564 16.616C304.172 16.456 304.788 16.376 305.412 16.376C306.036 16.376 306.636 16.448 307.212 16.592C307.788 16.736 308.3 16.984 308.748 17.336C309.196 17.672 309.548 18.12 309.804 18.68C310.076 19.24 310.212 19.928 310.212 20.744V29H308.196ZM308.172 24.248V23.192H304.932C304.404 23.192 303.948 23.256 303.564 23.384C303.196 23.496 302.892 23.656 302.652 23.864C302.428 24.072 302.26 24.312 302.148 24.584C302.052 24.84 302.004 25.112 302.004 25.4C302.004 26.12 302.244 26.64 302.724 26.96C303.204 27.28 303.828 27.432 304.596 27.416C305.028 27.416 305.452 27.344 305.868 27.2C306.3 27.04 306.684 26.824 307.02 26.552C307.372 26.28 307.652 25.952 307.86 25.568C308.068 25.168 308.172 24.728 308.172 24.248ZM313.168 29V11.048H315.328V29H313.168ZM319.789 23.024C319.789 23.696 319.893 24.296 320.101 24.824C320.309 25.352 320.589 25.8 320.941 26.168C321.293 26.536 321.701 26.824 322.165 27.032C322.645 27.24 323.157 27.36 323.701 27.392C324.549 27.44 325.317 27.272 326.005 26.888C326.709 26.488 327.189 25.8 327.445 24.824H329.461C329.317 25.608 329.061 26.288 328.693 26.864C328.325 27.424 327.885 27.888 327.373 28.256C326.861 28.608 326.293 28.864 325.669 29.024C325.045 29.2 324.405 29.288 323.749 29.288C322.933 29.288 322.149 29.144 321.397 28.856C320.661 28.552 320.013 28.128 319.453 27.584C318.909 27.024 318.469 26.344 318.133 25.544C317.813 24.744 317.653 23.824 317.653 22.784C317.653 21.936 317.789 21.128 318.061 20.36C318.333 19.576 318.717 18.888 319.213 18.296C319.725 17.704 320.349 17.24 321.085 16.904C321.837 16.552 322.677 16.376 323.605 16.376C324.613 16.376 325.477 16.552 326.197 16.904C326.933 17.24 327.541 17.712 328.021 18.32C328.517 18.912 328.893 19.616 329.149 20.432C329.405 21.232 329.549 22.096 329.581 23.024H319.789ZM327.325 21.488C327.133 20.544 326.709 19.768 326.053 19.16C325.413 18.552 324.589 18.248 323.581 18.248C322.605 18.248 321.789 18.552 321.133 19.16C320.493 19.768 320.085 20.544 319.909 21.488H327.325ZM333.191 25.64C333.319 26.36 333.655 26.856 334.199 27.128C334.759 27.384 335.391 27.512 336.095 27.512C336.863 27.512 337.511 27.368 338.039 27.08C338.567 26.792 338.831 26.32 338.831 25.664C338.831 25.216 338.695 24.856 338.423 24.584C338.151 24.312 337.679 24.088 337.007 23.912L334.535 23.24C333.591 22.984 332.831 22.608 332.255 22.112C331.679 21.616 331.391 20.912 331.391 20C331.391 19.36 331.519 18.808 331.775 18.344C332.047 17.88 332.399 17.504 332.831 17.216C333.263 16.912 333.759 16.696 334.319 16.568C334.895 16.424 335.487 16.352 336.095 16.352C337.647 16.352 338.831 16.68 339.647 17.336C340.479 17.976 340.911 18.864 340.943 20H338.903C338.855 19.632 338.751 19.328 338.591 19.088C338.431 18.832 338.223 18.632 337.967 18.488C337.727 18.328 337.439 18.224 337.103 18.176C336.783 18.112 336.439 18.08 336.071 18.08C335.735 18.08 335.415 18.12 335.111 18.2C334.823 18.264 334.559 18.376 334.319 18.536C334.095 18.68 333.911 18.872 333.767 19.112C333.639 19.352 333.575 19.64 333.575 19.976C333.575 20.408 333.743 20.76 334.079 21.032C334.415 21.304 334.911 21.528 335.567 21.704L337.895 22.328C338.823 22.584 339.575 22.96 340.151 23.456C340.727 23.952 341.015 24.656 341.015 25.568C341.015 26.208 340.879 26.76 340.607 27.224C340.335 27.688 339.975 28.072 339.527 28.376C339.079 28.68 338.567 28.896 337.991 29.024C337.415 29.168 336.823 29.24 336.215 29.24C334.679 29.24 333.455 28.92 332.543 28.28C331.647 27.64 331.191 26.76 331.175 25.64H333.191Z" fill="white"/>
<path d="M202.114 38.028H204.186V38.616H202.086V45H201.414V38.616H200.196V38.028H201.414V37.72C201.414 37.44 201.461 37.188 201.554 36.964C201.647 36.7307 201.773 36.5347 201.932 36.376C202.091 36.208 202.273 36.0773 202.478 35.984C202.693 35.8813 202.912 35.8207 203.136 35.802C203.379 35.7833 203.621 35.8113 203.864 35.886C204.107 35.9513 204.335 36.068 204.55 36.236V37.132C204.447 36.9173 204.284 36.7587 204.06 36.656C203.845 36.5533 203.617 36.502 203.374 36.502C203.019 36.502 202.721 36.6047 202.478 36.81C202.235 37.0153 202.114 37.3093 202.114 37.692V38.028ZM204.302 41.514C204.302 40.9913 204.382 40.5107 204.54 40.072C204.708 39.624 204.937 39.2413 205.226 38.924C205.525 38.5973 205.87 38.3453 206.262 38.168C206.664 37.9813 207.102 37.888 207.578 37.888C208.054 37.888 208.488 37.9813 208.88 38.168C209.282 38.3453 209.627 38.5973 209.916 38.924C210.206 39.2413 210.43 39.624 210.588 40.072C210.756 40.5107 210.84 40.9913 210.84 41.514C210.84 42.0367 210.756 42.522 210.588 42.97C210.43 43.418 210.206 43.8053 209.916 44.132C209.627 44.4493 209.282 44.7013 208.88 44.888C208.488 45.0653 208.054 45.154 207.578 45.154C207.102 45.154 206.664 45.0653 206.262 44.888C205.87 44.7013 205.525 44.4493 205.226 44.132C204.937 43.8053 204.708 43.418 204.54 42.97C204.382 42.522 204.302 42.0367 204.302 41.514ZM207.578 44.454C207.97 44.454 208.325 44.3793 208.642 44.23C208.96 44.0713 209.226 43.8613 209.44 43.6C209.664 43.3293 209.837 43.0167 209.958 42.662C210.08 42.3073 210.14 41.9247 210.14 41.514C210.14 41.1033 210.08 40.7207 209.958 40.366C209.837 40.0113 209.664 39.7033 209.44 39.442C209.226 39.1807 208.96 38.9753 208.642 38.826C208.325 38.6673 207.97 38.588 207.578 38.588C207.186 38.588 206.832 38.6673 206.514 38.826C206.197 38.9753 205.926 39.1807 205.702 39.442C205.488 39.7033 205.32 40.0113 205.198 40.366C205.077 40.7207 205.016 41.1033 205.016 41.514C205.016 41.9153 205.077 42.298 205.198 42.662C205.32 43.0167 205.492 43.3293 205.716 43.6C205.94 43.8613 206.206 44.0713 206.514 44.23C206.832 44.3793 207.186 44.454 207.578 44.454ZM212.19 45V38.014H212.89V39.666C213.011 39.4047 213.142 39.1667 213.282 38.952C213.431 38.728 213.599 38.5367 213.786 38.378C213.973 38.21 214.183 38.084 214.416 38C214.649 37.9067 214.92 37.86 215.228 37.86V38.504C214.836 38.504 214.491 38.5927 214.192 38.77C213.903 38.938 213.66 39.162 213.464 39.442C213.268 39.722 213.123 40.0393 213.03 40.394C212.937 40.7487 212.89 41.1033 212.89 41.458V45H212.19ZM216.169 45V38.028H216.883V39.526C217.144 38.9473 217.48 38.532 217.891 38.28C218.302 38.0187 218.754 37.888 219.249 37.888C219.837 37.888 220.313 38.0187 220.677 38.28C221.05 38.532 221.344 38.938 221.559 39.498C221.83 38.9473 222.184 38.5413 222.623 38.28C223.062 38.0187 223.584 37.888 224.191 37.888C224.602 37.888 224.961 37.9627 225.269 38.112C225.586 38.2613 225.848 38.4713 226.053 38.742C226.268 39.0127 226.426 39.3393 226.529 39.722C226.632 40.0953 226.683 40.506 226.683 40.954V45H225.997V41.164C225.997 40.8093 225.96 40.4733 225.885 40.156C225.81 39.8387 225.689 39.5587 225.521 39.316C225.362 39.0733 225.152 38.882 224.891 38.742C224.63 38.5927 224.312 38.518 223.939 38.518C223.594 38.518 223.281 38.588 223.001 38.728C222.721 38.8587 222.478 39.0453 222.273 39.288C222.077 39.5213 221.923 39.806 221.811 40.142C221.699 40.4687 221.643 40.8233 221.643 41.206V45H220.957V41.164C220.957 40.772 220.92 40.4127 220.845 40.086C220.78 39.7593 220.668 39.4793 220.509 39.246C220.36 39.0127 220.164 38.8307 219.921 38.7C219.678 38.5693 219.38 38.504 219.025 38.504C218.652 38.504 218.325 38.602 218.045 38.798C217.774 38.994 217.55 39.2367 217.373 39.526C217.205 39.8153 217.079 40.1187 216.995 40.436C216.911 40.744 216.869 41.0193 216.869 41.262V45H216.169ZM232.873 45V43.726C232.621 44.146 232.285 44.482 231.865 44.734C231.454 44.9767 231.025 45.1073 230.577 45.126C230.259 45.1447 229.942 45.1167 229.625 45.042C229.317 44.9767 229.041 44.86 228.799 44.692C228.565 44.524 228.374 44.3047 228.225 44.034C228.075 43.7633 228.001 43.432 228.001 43.04C228.001 42.564 228.089 42.186 228.267 41.906C228.453 41.6167 228.677 41.3973 228.939 41.248C229.209 41.0893 229.494 40.9867 229.793 40.94C230.101 40.8933 230.381 40.87 230.633 40.87H232.453C232.639 40.87 232.756 40.8187 232.803 40.716C232.849 40.6133 232.873 40.4827 232.873 40.324C232.873 39.932 232.803 39.6193 232.663 39.386C232.532 39.1527 232.364 38.9753 232.159 38.854C231.963 38.7233 231.753 38.6393 231.529 38.602C231.314 38.5647 231.123 38.546 230.955 38.546C230.805 38.546 230.623 38.56 230.409 38.588C230.194 38.616 229.984 38.686 229.779 38.798C229.583 38.9007 229.41 39.0593 229.261 39.274C229.121 39.4793 229.051 39.764 229.051 40.128H228.351C228.351 39.7173 228.425 39.372 228.575 39.092C228.733 38.8027 228.934 38.5693 229.177 38.392C229.429 38.2147 229.709 38.0887 230.017 38.014C230.334 37.93 230.651 37.888 230.969 37.888C231.295 37.888 231.613 37.93 231.921 38.014C232.229 38.0887 232.504 38.2193 232.747 38.406C232.989 38.5927 233.181 38.8447 233.321 39.162C233.47 39.4793 233.545 39.876 233.545 40.352V45H232.873ZM232.873 42.228V41.444H230.689C230.325 41.444 230.017 41.4907 229.765 41.584C229.522 41.668 229.321 41.7847 229.163 41.934C229.013 42.074 228.901 42.242 228.827 42.438C228.761 42.6247 228.729 42.8207 228.729 43.026C228.729 43.306 228.771 43.544 228.855 43.74C228.948 43.9267 229.074 44.0807 229.233 44.202C229.401 44.314 229.592 44.3933 229.807 44.44C230.021 44.4867 230.255 44.5053 230.507 44.496C230.796 44.4867 231.081 44.426 231.361 44.314C231.641 44.202 231.893 44.048 232.117 43.852C232.341 43.6467 232.523 43.4087 232.663 43.138C232.803 42.8673 232.873 42.564 232.873 42.228ZM240.681 44.986V43.404C240.382 44.0387 240.004 44.4913 239.547 44.762C239.089 45.0233 238.604 45.154 238.091 45.154C237.643 45.154 237.237 45.0607 236.873 44.874C236.509 44.678 236.196 44.4167 235.935 44.09C235.683 43.7633 235.487 43.3807 235.347 42.942C235.207 42.494 235.137 42.018 235.137 41.514C235.137 41.01 235.207 40.5387 235.347 40.1C235.487 39.652 235.683 39.2647 235.935 38.938C236.196 38.602 236.509 38.3407 236.873 38.154C237.237 37.958 237.638 37.86 238.077 37.86C238.431 37.86 238.753 37.9113 239.043 38.014C239.332 38.1167 239.589 38.2567 239.813 38.434C240.037 38.602 240.223 38.798 240.373 39.022C240.531 39.246 240.653 39.4793 240.737 39.722V35.228H241.367V44.986H240.681ZM235.851 41.514C235.851 41.9153 235.907 42.298 236.019 42.662C236.131 43.026 236.289 43.348 236.495 43.628C236.7 43.8987 236.947 44.118 237.237 44.286C237.526 44.4447 237.853 44.524 238.217 44.524C238.581 44.524 238.912 44.4447 239.211 44.286C239.519 44.118 239.78 43.894 239.995 43.614C240.219 43.334 240.391 43.012 240.513 42.648C240.634 42.2747 240.695 41.8827 240.695 41.472C240.695 41.0893 240.639 40.7207 240.527 40.366C240.415 40.002 240.251 39.6847 240.037 39.414C239.831 39.134 239.579 38.9147 239.281 38.756C238.982 38.588 238.646 38.504 238.273 38.504C237.899 38.504 237.563 38.588 237.265 38.756C236.966 38.9147 236.709 39.134 236.495 39.414C236.289 39.6847 236.131 40.002 236.019 40.366C235.907 40.73 235.851 41.1127 235.851 41.514ZM242.57 41.514C242.57 40.9913 242.649 40.5107 242.808 40.072C242.976 39.624 243.205 39.2413 243.494 38.924C243.793 38.5973 244.138 38.3453 244.53 38.168C244.931 37.9813 245.37 37.888 245.846 37.888C246.322 37.888 246.756 37.9813 247.148 38.168C247.549 38.3453 247.895 38.5973 248.184 38.924C248.473 39.2413 248.697 39.624 248.856 40.072C249.024 40.5107 249.108 40.9913 249.108 41.514C249.108 42.0367 249.024 42.522 248.856 42.97C248.697 43.418 248.473 43.8053 248.184 44.132C247.895 44.4493 247.549 44.7013 247.148 44.888C246.756 45.0653 246.322 45.154 245.846 45.154C245.37 45.154 244.931 45.0653 244.53 44.888C244.138 44.7013 243.793 44.4493 243.494 44.132C243.205 43.8053 242.976 43.418 242.808 42.97C242.649 42.522 242.57 42.0367 242.57 41.514ZM245.846 44.454C246.238 44.454 246.593 44.3793 246.91 44.23C247.227 44.0713 247.493 43.8613 247.708 43.6C247.932 43.3293 248.105 43.0167 248.226 42.662C248.347 42.3073 248.408 41.9247 248.408 41.514C248.408 41.1033 248.347 40.7207 248.226 40.366C248.105 40.0113 247.932 39.7033 247.708 39.442C247.493 39.1807 247.227 38.9753 246.91 38.826C246.593 38.6673 246.238 38.588 245.846 38.588C245.454 38.588 245.099 38.6673 244.782 38.826C244.465 38.9753 244.194 39.1807 243.97 39.442C243.755 39.7033 243.587 40.0113 243.466 40.366C243.345 40.7207 243.284 41.1033 243.284 41.514C243.284 41.9153 243.345 42.298 243.466 42.662C243.587 43.0167 243.76 43.3293 243.984 43.6C244.208 43.8613 244.474 44.0713 244.782 44.23C245.099 44.3793 245.454 44.454 245.846 44.454ZM250.71 43.376C250.784 43.8053 251.004 44.104 251.368 44.272C251.741 44.44 252.17 44.524 252.656 44.524C252.908 44.524 253.141 44.5007 253.356 44.454C253.58 44.398 253.771 44.3187 253.93 44.216C254.098 44.1133 254.228 43.978 254.322 43.81C254.424 43.6327 254.476 43.4227 254.476 43.18C254.476 42.872 254.378 42.6247 254.182 42.438C253.995 42.242 253.682 42.088 253.244 41.976L251.774 41.598C250.7 41.3273 250.164 40.7533 250.164 39.876C250.164 39.512 250.234 39.204 250.374 38.952C250.514 38.7 250.7 38.4947 250.934 38.336C251.167 38.1773 251.428 38.0607 251.718 37.986C252.016 37.9113 252.32 37.874 252.628 37.874C253.449 37.8833 254.065 38.042 254.476 38.35C254.896 38.658 255.115 39.092 255.134 39.652H254.49C254.424 39.2227 254.214 38.924 253.86 38.756C253.514 38.5787 253.099 38.4947 252.614 38.504C252.38 38.504 252.156 38.5273 251.942 38.574C251.736 38.6207 251.554 38.7 251.396 38.812C251.237 38.9147 251.106 39.0547 251.004 39.232C250.91 39.4 250.864 39.6053 250.864 39.848C250.864 40.1467 250.957 40.394 251.144 40.59C251.34 40.786 251.657 40.9353 252.096 41.038L253.566 41.402C254.639 41.6633 255.176 42.242 255.176 43.138C255.176 43.502 255.101 43.8147 254.952 44.076C254.812 44.328 254.62 44.5333 254.378 44.692C254.144 44.8507 253.874 44.9673 253.566 45.042C253.267 45.1167 252.959 45.154 252.642 45.154C251.83 45.154 251.2 44.9907 250.752 44.664C250.313 44.3373 250.084 43.908 250.066 43.376H250.71ZM260.238 46.456C260.425 46.456 260.593 46.4 260.742 46.288C260.901 46.1853 261.013 46.05 261.078 45.882L261.372 45.084L258.53 38.028H259.3L261.75 44.202L264.088 38.028H264.858L261.68 46.176C261.568 46.4653 261.381 46.6987 261.12 46.876C260.859 47.0533 260.569 47.142 260.252 47.142H259.594V46.456H260.238ZM268.95 41.472C268.95 41.9293 269.015 42.34 269.146 42.704C269.286 43.068 269.473 43.376 269.706 43.628C269.949 43.88 270.229 44.076 270.546 44.216C270.873 44.356 271.227 44.4307 271.61 44.44C271.89 44.4493 272.161 44.426 272.422 44.37C272.683 44.314 272.921 44.216 273.136 44.076C273.351 43.936 273.537 43.754 273.696 43.53C273.864 43.306 273.99 43.0307 274.074 42.704H274.718C274.625 43.1427 274.475 43.516 274.27 43.824C274.065 44.132 273.822 44.384 273.542 44.58C273.262 44.776 272.954 44.916 272.618 45C272.291 45.0933 271.951 45.14 271.596 45.14C271.129 45.14 270.691 45.056 270.28 44.888C269.879 44.72 269.524 44.482 269.216 44.174C268.917 43.8567 268.679 43.474 268.502 43.026C268.334 42.578 268.25 42.074 268.25 41.514C268.25 40.9913 268.329 40.5107 268.488 40.072C268.656 39.624 268.885 39.2413 269.174 38.924C269.473 38.5973 269.818 38.3453 270.21 38.168C270.611 37.9813 271.05 37.888 271.526 37.888C272.049 37.888 272.506 37.986 272.898 38.182C273.299 38.3687 273.631 38.63 273.892 38.966C274.163 39.2927 274.373 39.6753 274.522 40.114C274.671 40.5433 274.765 40.996 274.802 41.472H268.95ZM274.032 40.842C273.976 40.5153 273.873 40.2167 273.724 39.946C273.575 39.666 273.388 39.428 273.164 39.232C272.949 39.0267 272.702 38.868 272.422 38.756C272.142 38.644 271.834 38.588 271.498 38.588C271.162 38.588 270.854 38.644 270.574 38.756C270.294 38.868 270.047 39.0267 269.832 39.232C269.617 39.428 269.435 39.666 269.286 39.946C269.146 40.2167 269.048 40.5153 268.992 40.842H274.032ZM277.688 45L275.168 38.028H275.924L278.066 44.09L280.194 38.028H280.964L278.43 45H277.688ZM286.248 45V43.726C285.996 44.146 285.66 44.482 285.24 44.734C284.829 44.9767 284.4 45.1073 283.952 45.126C283.634 45.1447 283.317 45.1167 283 45.042C282.692 44.9767 282.416 44.86 282.174 44.692C281.94 44.524 281.749 44.3047 281.6 44.034C281.45 43.7633 281.376 43.432 281.376 43.04C281.376 42.564 281.464 42.186 281.642 41.906C281.828 41.6167 282.052 41.3973 282.314 41.248C282.584 41.0893 282.869 40.9867 283.168 40.94C283.476 40.8933 283.756 40.87 284.008 40.87H285.828C286.014 40.87 286.131 40.8187 286.178 40.716C286.224 40.6133 286.248 40.4827 286.248 40.324C286.248 39.932 286.178 39.6193 286.038 39.386C285.907 39.1527 285.739 38.9753 285.534 38.854C285.338 38.7233 285.128 38.6393 284.904 38.602C284.689 38.5647 284.498 38.546 284.33 38.546C284.18 38.546 283.998 38.56 283.784 38.588C283.569 38.616 283.359 38.686 283.154 38.798C282.958 38.9007 282.785 39.0593 282.636 39.274C282.496 39.4793 282.426 39.764 282.426 40.128H281.726C281.726 39.7173 281.8 39.372 281.95 39.092C282.108 38.8027 282.309 38.5693 282.552 38.392C282.804 38.2147 283.084 38.0887 283.392 38.014C283.709 37.93 284.026 37.888 284.344 37.888C284.67 37.888 284.988 37.93 285.296 38.014C285.604 38.0887 285.879 38.2193 286.122 38.406C286.364 38.5927 286.556 38.8447 286.696 39.162C286.845 39.4793 286.92 39.876 286.92 40.352V45H286.248ZM286.248 42.228V41.444H284.064C283.7 41.444 283.392 41.4907 283.14 41.584C282.897 41.668 282.696 41.7847 282.538 41.934C282.388 42.074 282.276 42.242 282.202 42.438C282.136 42.6247 282.104 42.8207 282.104 43.026C282.104 43.306 282.146 43.544 282.23 43.74C282.323 43.9267 282.449 44.0807 282.608 44.202C282.776 44.314 282.967 44.3933 283.182 44.44C283.396 44.4867 283.63 44.5053 283.882 44.496C284.171 44.4867 284.456 44.426 284.736 44.314C285.016 44.202 285.268 44.048 285.492 43.852C285.716 43.6467 285.898 43.4087 286.038 43.138C286.178 42.8673 286.248 42.564 286.248 42.228ZM288.849 45V35.088H289.549V45H288.849ZM295.955 43.376C295.787 43.74 295.609 44.0387 295.423 44.272C295.236 44.496 295.04 44.6733 294.835 44.804C294.629 44.9347 294.419 45.0233 294.205 45.07C293.999 45.1167 293.794 45.14 293.589 45.14C293.131 45.14 292.744 45.0653 292.427 44.916C292.119 44.7667 291.867 44.5567 291.671 44.286C291.484 44.0153 291.349 43.6933 291.265 43.32C291.181 42.9467 291.139 42.536 291.139 42.088V38.042H291.839V42.004C291.839 42.3773 291.871 42.718 291.937 43.026C292.002 43.334 292.109 43.6 292.259 43.824C292.408 44.0387 292.599 44.2067 292.833 44.328C293.075 44.4493 293.365 44.51 293.701 44.51C294.065 44.51 294.387 44.4167 294.667 44.23C294.947 44.034 295.18 43.796 295.367 43.516C295.553 43.2267 295.693 42.9187 295.787 42.592C295.889 42.2653 295.941 41.9667 295.941 41.696V38.042H296.641V45.014H295.955V43.376ZM303.092 45V43.726C302.84 44.146 302.504 44.482 302.084 44.734C301.673 44.9767 301.244 45.1073 300.796 45.126C300.478 45.1447 300.161 45.1167 299.844 45.042C299.536 44.9767 299.26 44.86 299.018 44.692C298.784 44.524 298.593 44.3047 298.444 44.034C298.294 43.7633 298.22 43.432 298.22 43.04C298.22 42.564 298.308 42.186 298.486 41.906C298.672 41.6167 298.896 41.3973 299.158 41.248C299.428 41.0893 299.713 40.9867 300.012 40.94C300.32 40.8933 300.6 40.87 300.852 40.87H302.672C302.858 40.87 302.975 40.8187 303.022 40.716C303.068 40.6133 303.092 40.4827 303.092 40.324C303.092 39.932 303.022 39.6193 302.882 39.386C302.751 39.1527 302.583 38.9753 302.378 38.854C302.182 38.7233 301.972 38.6393 301.748 38.602C301.533 38.5647 301.342 38.546 301.174 38.546C301.024 38.546 300.842 38.56 300.628 38.588C300.413 38.616 300.203 38.686 299.998 38.798C299.802 38.9007 299.629 39.0593 299.48 39.274C299.34 39.4793 299.27 39.764 299.27 40.128H298.57C298.57 39.7173 298.644 39.372 298.794 39.092C298.952 38.8027 299.153 38.5693 299.396 38.392C299.648 38.2147 299.928 38.0887 300.236 38.014C300.553 37.93 300.87 37.888 301.188 37.888C301.514 37.888 301.832 37.93 302.14 38.014C302.448 38.0887 302.723 38.2193 302.966 38.406C303.208 38.5927 303.4 38.8447 303.54 39.162C303.689 39.4793 303.764 39.876 303.764 40.352V45H303.092ZM303.092 42.228V41.444H300.908C300.544 41.444 300.236 41.4907 299.984 41.584C299.741 41.668 299.54 41.7847 299.382 41.934C299.232 42.074 299.12 42.242 299.046 42.438C298.98 42.6247 298.948 42.8207 298.948 43.026C298.948 43.306 298.99 43.544 299.074 43.74C299.167 43.9267 299.293 44.0807 299.452 44.202C299.62 44.314 299.811 44.3933 300.026 44.44C300.24 44.4867 300.474 44.5053 300.726 44.496C301.015 44.4867 301.3 44.426 301.58 44.314C301.86 44.202 302.112 44.048 302.336 43.852C302.56 43.6467 302.742 43.4087 302.882 43.138C303.022 42.8673 303.092 42.564 303.092 42.228ZM310.9 44.986V43.404C310.601 44.0387 310.223 44.4913 309.766 44.762C309.308 45.0233 308.823 45.154 308.31 45.154C307.862 45.154 307.456 45.0607 307.092 44.874C306.728 44.678 306.415 44.4167 306.154 44.09C305.902 43.7633 305.706 43.3807 305.566 42.942C305.426 42.494 305.356 42.018 305.356 41.514C305.356 41.01 305.426 40.5387 305.566 40.1C305.706 39.652 305.902 39.2647 306.154 38.938C306.415 38.602 306.728 38.3407 307.092 38.154C307.456 37.958 307.857 37.86 308.296 37.86C308.65 37.86 308.972 37.9113 309.262 38.014C309.551 38.1167 309.808 38.2567 310.032 38.434C310.256 38.602 310.442 38.798 310.592 39.022C310.75 39.246 310.872 39.4793 310.956 39.722V35.228H311.586V44.986H310.9ZM306.07 41.514C306.07 41.9153 306.126 42.298 306.238 42.662C306.35 43.026 306.508 43.348 306.714 43.628C306.919 43.8987 307.166 44.118 307.456 44.286C307.745 44.4447 308.072 44.524 308.436 44.524C308.8 44.524 309.131 44.4447 309.43 44.286C309.738 44.118 309.999 43.894 310.214 43.614C310.438 43.334 310.61 43.012 310.732 42.648C310.853 42.2747 310.914 41.8827 310.914 41.472C310.914 41.0893 310.858 40.7207 310.746 40.366C310.634 40.002 310.47 39.6847 310.256 39.414C310.05 39.134 309.798 38.9147 309.5 38.756C309.201 38.588 308.865 38.504 308.492 38.504C308.118 38.504 307.782 38.588 307.484 38.756C307.185 38.9147 306.928 39.134 306.714 39.414C306.508 39.6847 306.35 40.002 306.238 40.366C306.126 40.73 306.07 41.1127 306.07 41.514ZM312.789 41.514C312.789 40.9913 312.868 40.5107 313.027 40.072C313.195 39.624 313.423 39.2413 313.713 38.924C314.011 38.5973 314.357 38.3453 314.749 38.168C315.15 37.9813 315.589 37.888 316.065 37.888C316.541 37.888 316.975 37.9813 317.367 38.168C317.768 38.3453 318.113 38.5973 318.403 38.924C318.692 39.2413 318.916 39.624 319.075 40.072C319.243 40.5107 319.327 40.9913 319.327 41.514C319.327 42.0367 319.243 42.522 319.075 42.97C318.916 43.418 318.692 43.8053 318.403 44.132C318.113 44.4493 317.768 44.7013 317.367 44.888C316.975 45.0653 316.541 45.154 316.065 45.154C315.589 45.154 315.15 45.0653 314.749 44.888C314.357 44.7013 314.011 44.4493 313.713 44.132C313.423 43.8053 313.195 43.418 313.027 42.97C312.868 42.522 312.789 42.0367 312.789 41.514ZM316.065 44.454C316.457 44.454 316.811 44.3793 317.129 44.23C317.446 44.0713 317.712 43.8613 317.927 43.6C318.151 43.3293 318.323 43.0167 318.445 42.662C318.566 42.3073 318.627 41.9247 318.627 41.514C318.627 41.1033 318.566 40.7207 318.445 40.366C318.323 40.0113 318.151 39.7033 317.927 39.442C317.712 39.1807 317.446 38.9753 317.129 38.826C316.811 38.6673 316.457 38.588 316.065 38.588C315.673 38.588 315.318 38.6673 315.001 38.826C314.683 38.9753 314.413 39.1807 314.189 39.442C313.974 39.7033 313.806 40.0113 313.685 40.366C313.563 40.7207 313.503 41.1033 313.503 41.514C313.503 41.9153 313.563 42.298 313.685 42.662C313.806 43.0167 313.979 43.3293 314.203 43.6C314.427 43.8613 314.693 44.0713 315.001 44.23C315.318 44.3793 315.673 44.454 316.065 44.454ZM320.928 43.376C321.003 43.8053 321.222 44.104 321.586 44.272C321.96 44.44 322.389 44.524 322.874 44.524C323.126 44.524 323.36 44.5007 323.574 44.454C323.798 44.398 323.99 44.3187 324.148 44.216C324.316 44.1133 324.447 43.978 324.54 43.81C324.643 43.6327 324.694 43.4227 324.694 43.18C324.694 42.872 324.596 42.6247 324.4 42.438C324.214 42.242 323.901 42.088 323.462 41.976L321.992 41.598C320.919 41.3273 320.382 40.7533 320.382 39.876C320.382 39.512 320.452 39.204 320.592 38.952C320.732 38.7 320.919 38.4947 321.152 38.336C321.386 38.1773 321.647 38.0607 321.936 37.986C322.235 37.9113 322.538 37.874 322.846 37.874C323.668 37.8833 324.284 38.042 324.694 38.35C325.114 38.658 325.334 39.092 325.352 39.652H324.708C324.643 39.2227 324.433 38.924 324.078 38.756C323.733 38.5787 323.318 38.4947 322.832 38.504C322.599 38.504 322.375 38.5273 322.16 38.574C321.955 38.6207 321.773 38.7 321.614 38.812C321.456 38.9147 321.325 39.0547 321.222 39.232C321.129 39.4 321.082 39.6053 321.082 39.848C321.082 40.1467 321.176 40.394 321.362 40.59C321.558 40.786 321.876 40.9353 322.314 41.038L323.784 41.402C324.858 41.6633 325.394 42.242 325.394 43.138C325.394 43.502 325.32 43.8147 325.17 44.076C325.03 44.328 324.839 44.5333 324.596 44.692C324.363 44.8507 324.092 44.9673 323.784 45.042C323.486 45.1167 323.178 45.154 322.86 45.154C322.048 45.154 321.418 44.9907 320.97 44.664C320.532 44.3373 320.303 43.908 320.284 43.376H320.928ZM326.561 45V44.006H327.527V45H326.561Z" fill="white"/>
</svg>
