<svg width="5" height="8" viewBox="0 0 5 8" fill="none" xmlns="http://www.w3.org/2000/svg">
<path d="M0.147059 0.146894C0.100496 0.193339 0.0635527 0.248515 0.0383463 0.30926C0.0131398 0.370005 0.000165939 0.435127 0.000165939 0.500894C0.000165939 0.566661 0.0131398 0.631782 0.0383463 0.692528C0.0635527 0.753273 0.100496 0.808448 0.147059 0.854894L3.29406 4.00089L0.147059 7.14689C0.100571 7.19338 0.0636952 7.24857 0.0385361 7.30931C0.013377 7.37005 0.000427247 7.43515 0.000427246 7.50089C0.000427246 7.56664 0.013377 7.63174 0.0385361 7.69248C0.0636952 7.75322 0.100571 7.80841 0.147059 7.85489C0.193547 7.90138 0.248736 7.93826 0.309476 7.96342C0.370215 7.98858 0.435316 8.00152 0.50106 8.00152C0.566803 8.00152 0.631904 7.98858 0.692643 7.96342C0.753382 7.93826 0.808571 7.90138 0.855059 7.85489L4.35506 4.35489C4.40162 4.30845 4.43857 4.25327 4.46377 4.19253C4.48898 4.13178 4.50195 4.06666 4.50195 4.00089C4.50195 3.93513 4.48898 3.87001 4.46377 3.80926C4.43857 3.74851 4.40162 3.69334 4.35506 3.64689L0.855059 0.146894C0.808614 0.10033 0.753438 0.0633878 0.692693 0.0381813C0.631948 0.0129749 0.566827 0 0.50106 0C0.435292 0 0.37017 0.0129749 0.309425 0.0381813C0.24868 0.0633878 0.193505 0.10033 0.147059 0.146894Z" fill="white"/>
</svg>
