<svg width="200" height="51" viewBox="0 0 200 51" fill="none" xmlns="http://www.w3.org/2000/svg">
<path d="M198.014 7.42925C196.691 5.75205 194.679 4.91602 191.982 4.91602C189.284 4.91602 187.275 5.75461 185.952 7.42925C184.626 9.10389 183.963 11.0837 183.963 13.3687C183.963 15.6537 184.626 17.6797 185.952 19.3338C187.275 20.9828 189.287 21.8086 191.982 21.8086C194.676 21.8086 196.691 20.9828 198.014 19.3338C199.34 17.6797 200 15.6947 200 13.3687C200 11.0427 199.34 9.10389 198.014 7.42925ZM194.732 17.0411C194.09 17.9002 193.17 18.3336 191.966 18.3336C190.762 18.3336 189.843 17.9002 189.195 17.0411C188.548 16.182 188.225 14.9562 188.225 13.3687C188.225 11.7813 188.548 10.5606 189.195 9.704C189.843 8.84744 190.768 8.41916 191.966 8.41916C193.165 8.41916 194.087 8.84744 194.732 9.704C195.375 10.5606 195.697 11.7838 195.697 13.3687C195.697 14.9536 195.375 16.182 194.732 17.0411Z" fill="white"/>
<path d="M164.162 6.02569C162.818 5.3384 161.282 4.99219 159.552 4.99219C156.893 4.99219 155.016 5.69231 153.921 7.08998C153.233 7.985 152.849 9.12878 152.758 10.5188H156.733C156.829 9.90327 157.025 9.41857 157.32 9.05954C157.729 8.57484 158.427 8.33121 159.41 8.33121C160.289 8.33121 160.954 8.45431 161.411 8.70307C161.863 8.94926 162.092 9.40062 162.092 10.052C162.092 10.588 161.797 10.9778 161.206 11.2343C160.875 11.3804 160.327 11.501 159.56 11.5984L158.15 11.7728C156.55 11.978 155.336 12.3191 154.513 12.7961C153.009 13.6706 152.258 15.0862 152.258 17.0404C152.258 18.5457 152.722 19.71 153.66 20.5307C154.592 21.3539 155.778 21.6976 157.21 21.7642C166.194 22.172 166.095 16.9839 166.176 15.9068V9.93917C166.176 8.02347 165.503 6.72068 164.162 6.02826V6.02569ZM162.074 15.0836C162.046 16.4736 161.653 17.4302 160.896 17.9559C160.136 18.4816 159.311 18.7432 158.412 18.7432C157.843 18.7432 157.36 18.5816 156.964 18.2688C156.568 17.9533 156.37 17.4379 156.37 16.7275C156.37 15.9325 156.695 15.3452 157.342 14.9631C157.726 14.74 158.356 14.5502 159.235 14.3989L160.172 14.2219C160.639 14.1322 161.005 14.0347 161.274 13.9321C161.546 13.8347 161.808 13.7013 162.069 13.5346V15.0811L162.074 15.0836Z" fill="white"/>
<path d="M143.675 8.54746C144.704 8.54746 145.455 8.86803 145.946 9.50916C146.278 9.98103 146.487 10.517 146.568 11.1094H151C150.759 8.85008 149.977 7.27545 148.653 6.38299C147.327 5.4931 145.631 5.04688 143.556 5.04688C141.115 5.04688 139.2 5.80341 137.813 7.31392C136.426 8.82699 135.73 10.9427 135.73 13.6611C135.73 16.0667 136.358 18.0311 137.615 19.5416C138.872 21.0521 140.83 21.8087 143.492 21.8087C146.154 21.8087 148.171 20.9034 149.527 19.0877C150.378 17.9644 150.855 16.7719 150.954 15.5127H146.538C146.446 16.3462 146.19 17.0258 145.76 17.549C145.336 18.0696 144.617 18.3337 143.601 18.3337C142.171 18.3337 141.196 17.6746 140.68 16.3539C140.396 15.6487 140.251 14.7177 140.251 13.556C140.251 12.3943 140.396 11.3659 140.68 10.6247C141.219 9.24245 142.217 8.54746 143.675 8.54746Z" fill="white"/>
<path d="M134.4 9.2626C134.6 9.27286 134.829 9.29081 135.093 9.32158V5.07728C134.91 5.06446 134.791 5.05933 134.74 5.05164C134.687 5.04651 134.623 5.04395 134.544 5.04395C125.439 5.04395 125.98 13.1812 125.98 13.1812V21.4493H130.112V13.6967C130.112 12.4247 130.272 11.486 130.585 10.8731C131.151 9.78833 132.261 9.24465 133.912 9.24465C134.036 9.24465 134.199 9.25234 134.4 9.2626Z" fill="white"/>
<path d="M110.883 19.8981C112.478 21.1957 114.322 21.8497 116.409 21.8497C118.939 21.8497 120.908 21.0778 122.312 19.5365C123.072 18.7261 123.546 17.9234 123.747 17.1309H119.363C119.191 17.3823 119.005 17.5951 118.799 17.7618C118.215 18.2465 117.423 18.3953 116.491 18.3953C115.609 18.3953 114.916 18.2619 114.291 17.8644C113.26 17.2233 112.678 16.141 112.617 14.5536H124.049C124.065 13.1841 124.021 12.1352 123.912 11.4069C123.724 10.1657 123.303 9.07319 122.663 8.13201C121.949 7.06516 121.042 6.28298 119.95 5.78546C118.855 5.29307 117.626 5.04688 116.262 5.04688C113.961 5.04688 112.092 5.77777 110.649 7.24211C109.209 8.70903 108.485 10.8119 108.485 13.5586C108.485 16.4898 109.285 18.603 110.883 19.9032V19.8981ZM113.814 9.36298C114.395 8.76032 115.211 8.4577 116.265 8.4577C117.232 8.4577 118.045 8.74237 118.7 9.31426C119.353 9.88358 119.716 10.7196 119.793 11.8147H112.724C112.871 10.7837 113.24 9.96821 113.816 9.36298H113.814Z" fill="white"/>
<path d="M103.054 11.8555V21.4494H106.826V11.9452C106.826 7.85994 104.398 4.99023 100.276 4.99023C98.3582 4.99023 96.6997 5.83909 95.5846 7.1983C94.5255 5.83909 92.8949 4.99023 90.8909 4.99023C86.855 4.99023 84.2542 7.98304 84.2542 11.9452V21.4494H88.031V11.8555C88.031 10.1039 89.2044 8.89345 90.8934 8.89345C93.3826 8.89345 93.6391 10.9784 93.6391 11.8555V21.4494H97.4159V11.8555C97.4159 10.1039 98.6173 8.89345 100.276 8.89345C102.765 8.89345 103.052 10.9784 103.052 11.8555H103.054Z" fill="white"/>
<path d="M178.571 2.96156L178.566 7.43154C178.106 6.6827 177.507 6.09799 176.768 5.67997C176.031 5.25939 175.185 5.04653 174.233 5.04653C172.168 5.04653 170.524 5.82358 169.29 7.36999C168.056 8.92154 167.438 11.1578 167.438 13.8608C167.438 16.2074 168.066 18.1308 169.318 19.6285C170.57 21.1236 173.026 21.7801 175.208 21.7801C182.815 21.7801 182.726 15.1944 182.726 15.1944V0.0354327C182.726 0.0354327 178.568 -0.413361 178.568 2.96156H178.571ZM177.776 17.0768C177.174 17.9487 176.287 18.3847 175.127 18.3847C173.966 18.3847 173.1 17.9436 172.528 17.0691C171.957 16.1894 171.673 14.9123 171.673 13.4505C171.673 12.0913 171.952 10.9578 172.513 10.0422C173.075 9.1267 173.953 8.66765 175.155 8.66765C175.942 8.66765 176.633 8.91897 177.23 9.42162C178.197 10.2551 178.685 11.7528 178.685 13.689C178.685 15.0738 178.38 16.2048 177.776 17.0768Z" fill="white"/>
<path d="M92.9862 27.8272C89.5828 27.6656 87.8658 28.4837 86.7457 29.3479C85.1989 30.5405 84.2566 32.3049 84.2566 35.1233V49.6154H86.258C86.7939 49.6154 87.3299 49.4282 87.7236 49.0615C88.1655 48.6512 88.3865 48.1485 88.3865 47.5587V42.1424C88.8741 42.9913 89.5167 43.6144 90.3295 44.0196C91.0991 44.3812 91.988 44.5633 92.9989 44.5633C94.9013 44.5633 96.4634 43.7991 97.6749 42.2629C98.889 40.6857 99.496 38.6341 99.496 36.0927C99.496 33.5512 98.922 31.7407 97.5453 30.0481C96.4329 28.6786 94.7413 27.9067 92.9888 27.8272H92.9862ZM94.3959 39.7215C93.7888 40.5703 92.9583 40.9935 91.9068 40.9935C90.774 40.9935 89.9028 40.5729 89.2958 39.7215C88.6887 38.9547 88.3839 37.8109 88.3839 36.2722C88.3839 34.6232 88.6659 33.4102 89.2323 32.6434C89.8418 31.7996 90.6927 31.3714 91.7849 31.3714C92.877 31.3714 93.7888 31.7971 94.3959 32.6434C95.0054 33.4922 95.3077 34.7001 95.3077 36.2722C95.3077 37.7288 95.0054 38.8726 94.3959 39.7215Z" fill="white"/>
<path d="M128.474 29.3229C127.069 28.2483 125.634 27.6867 123.168 27.7534C120.664 27.8226 118.843 28.5304 117.71 30.0794C116.577 31.6309 116.013 33.6569 116.013 36.1522C116.013 38.2885 116.44 40.0093 117.293 41.3249C118.149 42.6328 119.173 43.5304 120.367 44.0099C121.555 44.4946 122.759 44.5947 123.973 44.3151C125.185 44.0305 126.15 43.3303 126.866 42.2019V43.2252C126.785 44.5152 126.478 45.482 125.944 46.1282C125.403 46.7694 124.809 47.1643 124.151 47.3054C123.501 47.4438 122.84 47.3669 122.188 47.0617C121.53 46.7617 121.045 46.3257 120.727 45.7641H116.374C117.502 49.1852 119.526 50.6957 123.173 50.9624C129.056 51.3907 130.93 46.3616 130.925 43.6483V35.1213C130.925 32.3029 130.016 30.4974 128.479 29.3177L128.474 29.3229ZM126.744 37.6986C126.584 38.6424 126.328 39.3399 125.967 39.781C125.213 40.8274 124.037 41.1992 122.452 40.9017C120.859 40.5966 120.064 39.0553 120.064 36.2779C120.064 34.9879 120.301 33.839 120.781 32.8286C121.258 31.8259 122.17 31.3181 123.521 31.3181C124.514 31.3181 125.271 31.6822 125.787 32.4054C126.305 33.1312 126.635 33.957 126.772 34.8853C126.912 35.8111 126.899 36.7498 126.742 37.6961L126.744 37.6986Z" fill="white"/>
<path d="M112.478 28.8997C111.134 28.215 109.597 27.8662 107.868 27.8662C105.208 27.8662 103.334 28.5663 102.242 29.9666C101.556 30.859 101.17 32.0028 101.078 33.3928H105.053C105.15 32.7799 105.346 32.2926 105.638 31.9361C106.047 31.4514 106.745 31.2052 107.728 31.2052C108.609 31.2052 109.275 31.3283 109.729 31.5771C110.181 31.8233 110.408 32.2746 110.408 32.926C110.408 33.4595 110.113 33.8544 109.521 34.1057C109.191 34.2519 108.642 34.3724 107.875 34.4699L106.468 34.6417C104.868 34.8469 103.651 35.188 102.834 35.665C101.327 36.5395 100.578 37.9525 100.578 39.9067C100.578 41.4121 101.043 42.5764 101.98 43.397C102.912 44.2202 104.098 44.5639 105.533 44.6306C114.515 45.0358 114.413 39.8503 114.494 38.7732V32.8055C114.494 30.8924 113.826 29.5896 112.483 28.8972L112.478 28.8997ZM110.39 37.9551C110.364 39.3476 109.968 40.3016 109.214 40.8274C108.457 41.3531 107.629 41.6147 106.73 41.6147C106.161 41.6147 105.681 41.4531 105.282 41.1402C104.886 40.8248 104.688 40.3119 104.688 39.6015C104.688 38.8065 105.013 38.2192 105.66 37.8397C106.047 37.6166 106.674 37.4268 107.553 37.2755L108.492 37.1011C108.96 37.0113 109.328 36.9164 109.592 36.8139C109.864 36.7139 110.128 36.5805 110.39 36.4138V37.9602V37.9551Z" fill="white"/>
<path d="M140.508 27.7012C137.816 27.7012 135.804 28.5372 134.481 30.217C133.155 31.8916 132.492 33.8689 132.492 36.1539C132.492 38.4389 133.155 40.4623 134.481 42.1164C135.804 43.7628 137.816 44.5886 140.508 44.5886C143.2 44.5886 145.214 43.7628 146.543 42.1164C147.866 40.4623 148.526 38.4773 148.526 36.1539C148.526 33.8304 147.866 31.8916 146.543 30.217C145.217 28.5398 143.205 27.7012 140.508 27.7012ZM143.259 39.8211C142.616 40.6828 141.697 41.1162 140.498 41.1162C139.299 41.1162 138.374 40.6828 137.727 39.8211C137.076 38.962 136.754 37.7387 136.754 36.1513C136.754 34.5639 137.076 33.3431 137.727 32.4866C138.372 31.63 139.296 31.2018 140.498 31.2018C141.699 31.2018 142.619 31.63 143.259 32.4866C143.901 33.3431 144.221 34.5639 144.221 36.1513C144.221 37.7387 143.901 38.962 143.259 39.8211Z" fill="white"/>
<path d="M72.977 23.7931C72.8678 10.5191 56.4422 -0.167276 36.2881 0.00198322C16.1365 0.171242 -0.108668 11.1321 0.000547476 24.4061C0.00308738 24.7497 0.00562697 25.6986 0.00816687 25.8166C0.125002 39.8984 14.4958 51.1849 36.7072 50.9977C59.0532 50.8105 73.104 39.2855 72.9871 25.2011L72.9744 23.788L72.977 23.7931ZM36.6818 46.7508C17.3049 46.915 1.51433 36.9005 1.41019 24.3856C1.40511 23.8803 1.43559 23.3828 1.48385 22.8853L1.70736 21.3543C1.74038 21.1901 1.79372 21.0311 1.83181 20.867C2.62934 21.1004 3.20844 21.262 3.48783 21.3261C12.4029 23.3777 15.946 25.5114 16.9976 26.2731C17.6859 25.6524 18.5901 25.3011 19.5044 25.3011H19.507C20.5763 25.3011 21.5795 25.7627 22.2933 26.568C23.4134 25.8396 24.7773 25.6858 26.159 26.1705C27.0632 26.4833 27.7769 27.0655 28.2341 27.8605C29.1561 27.563 30.2 27.6323 31.2439 28.0862C33.2529 28.9581 33.545 30.8354 33.5044 32.0253C35.8919 32.0766 37.8171 34.0538 37.8146 36.4748C37.8146 37.0518 37.7003 37.6314 37.4819 38.1597C38.1448 38.4956 39.275 38.9649 40.2758 38.8418C41.2257 38.7213 41.5101 38.4135 41.5762 38.3212C41.5838 38.3135 41.5889 38.3033 41.594 38.2956L38.9042 35.2951C38.4343 34.8488 38.3149 34.3924 38.5969 34.0795C38.7137 33.9461 38.8788 33.8718 39.0591 33.8718C39.3715 33.8718 39.6382 34.1 39.8338 34.2667C41.2917 35.4951 43.0392 37.3159 43.0569 37.3339L43.1001 37.3826C43.1382 37.4288 43.25 37.5211 43.6208 37.5878C43.7453 37.6108 43.8824 37.6237 44.0246 37.6237C44.2964 37.6237 44.9847 37.5775 45.4876 37.1621C45.5791 37.0826 45.6781 36.9877 45.7721 36.8876L45.8762 36.7517C46.3334 36.1619 45.8991 35.5618 45.8077 35.4464L42.5337 31.7278C42.5337 31.7278 42.4042 31.6047 42.295 31.4534C41.9394 30.9738 42.0994 30.6584 42.2264 30.5122C42.3483 30.3814 42.5083 30.3148 42.676 30.3148C42.968 30.3148 43.2398 30.5097 43.4887 30.7199C44.365 31.4611 45.5562 32.6433 46.7068 33.7871L47.4307 34.5103C47.5195 34.5693 47.9539 34.8386 48.5584 34.8412C49.0409 34.8412 49.5362 34.6745 50.029 34.3462C50.7122 33.8974 51.0297 33.346 50.9992 32.6664C50.9484 32.0715 50.4582 31.597 50.4531 31.5919L45.9499 27.0168C45.4851 26.6167 45.3479 26.132 45.6146 25.7986C45.7289 25.655 45.9194 25.5806 46.0871 25.5755C46.3791 25.5755 46.6357 25.7704 46.8922 25.9884C47.6923 26.6654 49.394 28.2041 51.9491 30.5584C52.0965 30.6943 52.1879 30.7764 52.2006 30.7892C52.2006 30.7892 52.6679 31.1149 53.3562 31.1175C53.8109 31.1175 54.2681 30.9738 54.7126 30.6892C55.2002 30.3763 55.4821 29.9249 55.5075 29.4223C55.5533 28.5068 54.9183 27.94 54.9132 27.9349C53.7118 26.8732 43.4354 17.7973 41.0453 15.9816C39.6636 14.9301 38.8966 14.6557 38.1041 14.5531C38.0203 14.5403 37.9314 14.5403 37.8374 14.5377C37.52 14.5377 37.111 14.5942 36.7758 14.6839C35.5566 15.0199 33.9565 16.1688 32.8262 17.0741C31.3556 18.2512 29.979 19.3565 28.6354 19.6591C28.2138 19.754 27.7515 19.813 27.274 19.8027C26.0066 19.8002 24.6376 19.4463 23.868 18.9205C23.4388 18.6282 23.1289 18.2794 22.974 17.9101C22.5752 16.9715 23.1721 16.2175 23.4464 15.9354L26.5374 12.5656C26.5603 12.5425 26.5806 12.522 26.6009 12.5015C26.1564 12.6092 25.7196 12.7298 25.2522 12.8631C24.1296 13.1785 22.9943 13.4991 21.8412 13.4991H21.8361C21.45 13.4991 21.069 13.4658 20.6982 13.4376L20.3274 13.4094C18.7069 13.3042 13.556 11.9835 9.01465 10.1396C9.01973 10.1344 9.02482 10.1293 9.0299 10.1268L10.2846 9.1548C16.6674 4.49248 25.9482 1.51506 36.3033 1.42786C46.9989 1.3381 56.5972 4.35143 63.0714 9.17275L64.3159 10.1498C64.3997 10.2191 64.4734 10.2934 64.5547 10.3627L64.1483 10.5525C60.5594 12.2092 57.2093 13.017 53.9049 13.017H53.8896C50.7147 13.0119 47.5551 12.2425 44.5021 10.7345C44.1542 10.5704 40.9844 9.12659 37.7841 9.12146C37.7028 9.12146 37.6165 9.12146 37.5352 9.12659C32.4351 9.23943 30.2127 11.4808 27.8582 13.8505L24.8154 17.1587C24.7544 17.2382 24.7265 17.2869 24.7163 17.3151C25.0668 17.7152 25.9812 17.9947 26.9718 17.9973C27.3959 17.9973 27.8201 17.9486 28.2341 17.8563C29.1637 17.6485 30.4362 16.6278 31.668 15.6431L31.7544 15.5738C33.1209 14.4788 34.533 13.3478 35.9757 12.8888C36.6107 12.6836 37.2228 12.581 37.7968 12.581H37.8044C38.4242 12.581 38.9067 12.7015 39.2547 12.8093C40.0167 13.0375 40.8828 13.5453 42.1477 14.5095C44.2151 16.0765 51.4589 22.4314 55.6701 26.15C58.0144 25.1062 63.9552 22.6417 71.2651 21.0081C71.2651 21.0081 71.2651 20.9978 71.2702 20.9799C71.2803 21.0337 71.2981 21.085 71.3083 21.1414L71.5242 22.6673C71.5546 23.0417 71.575 23.4187 71.5775 23.7983C71.6816 36.3132 56.0587 46.5918 36.6793 46.756L36.6818 46.7508Z" fill="white"/>
<path d="M33.4535 33.6717C33.0522 33.6717 32.6204 33.8205 32.336 33.9205C32.1404 33.9872 32.0236 34.0307 31.9296 34.0307H31.8686L31.7848 33.9897C31.7239 33.9487 31.6934 33.8897 31.6781 33.8205C31.5943 33.6974 31.6197 33.505 31.767 33.1409C31.7746 33.1229 32.2191 31.8637 31.8356 30.7764C31.6477 30.3019 31.2971 29.8685 30.6673 29.5941C30.2405 29.4069 29.8265 29.3171 29.4405 29.3146C28.5922 29.3146 28.0486 29.7505 27.8022 30.0147C27.7413 30.0788 27.6575 30.1506 27.5457 30.1506C27.5102 30.1506 27.3628 30.1301 27.3044 29.948C27.2739 29.9044 27.2511 29.8454 27.2435 29.7608C27.2308 29.5787 27.1927 29.3043 27.0885 29.0094C26.893 28.5093 26.4993 27.9682 25.6992 27.7194C25.3716 27.6169 25.0465 27.5656 24.7315 27.5656C23.0755 27.5656 22.1764 28.9427 22.1408 29.0017L21.8132 29.5172L21.8005 29.4223C21.8005 29.4223 21.7852 29.4325 21.7827 29.4325C21.7141 29.4146 21.7039 28.8273 21.7039 28.8273C21.6887 28.6965 21.6582 28.5683 21.6201 28.4452C21.3128 27.563 20.4873 26.9424 19.5374 26.9424C18.3106 26.9424 17.3099 27.9502 17.3074 29.1966C17.3074 29.4787 17.3658 29.748 17.4598 29.9967C17.8001 30.7969 18.5875 31.3559 19.5018 31.3585C20.0759 31.3585 20.528 31.0046 21.041 30.7302C21.1807 30.6558 21.3255 30.6456 21.3687 30.7071C21.4093 30.7635 21.422 30.8276 21.4271 30.8969C21.455 30.9533 21.4703 31.0174 21.4601 31.0969C21.4093 31.4047 21.3407 32.0689 21.5515 32.7639C21.7776 33.4281 22.2703 34.1051 23.2965 34.5078C23.5555 34.6103 23.8146 34.6591 24.0686 34.6616C24.5283 34.6616 24.9804 34.5026 25.4528 34.1667C25.5671 34.0846 25.6535 34.0461 25.7348 34.0513C25.7906 34.0564 25.877 34.0743 25.9354 34.141C25.9811 34.1923 25.9989 34.2539 26.004 34.3154C26.0396 34.4 26.0446 34.4924 26.0294 34.5847C26.004 34.7565 25.9938 35.0207 26.0726 35.3207C26.23 35.8003 26.6237 36.3465 27.5762 36.7363C27.9038 36.8722 28.2137 36.9389 28.5007 36.9389C29.1306 36.9389 29.5624 36.6184 29.9027 36.3004C30.0221 36.1901 30.1288 36.1157 30.2482 36.1157C30.426 36.1157 30.4971 36.2465 30.5301 36.3773C30.586 36.4901 30.5961 36.6286 30.5987 36.703C30.6114 37.0569 30.6952 37.3877 30.8222 37.6955C31.2743 38.6777 32.2623 39.3547 33.4129 39.3573C34.9902 39.3573 36.2754 38.0648 36.2779 36.4747C36.2779 36.1003 36.2017 35.7439 36.0696 35.4156C35.6251 34.4026 34.6219 33.6871 33.4535 33.6717Z" fill="white"/>
</svg>
