<svg width="16" height="16" viewBox="0 0 16 16" fill="none" xmlns="http://www.w3.org/2000/svg">
<path d="M0 14.4762V3.04762H4.57143V0H10.6667V3.04762H15.2381V7.82857C15.0095 7.66349 14.7652 7.52076 14.5051 7.40038C14.2451 7.28 13.9815 7.17511 13.7143 7.08571V4.57143H1.52381V12.9524H6.91428C6.95238 13.219 7.00952 13.4794 7.08571 13.7333C7.1619 13.9873 7.25714 14.2349 7.37143 14.4762H0ZM6.09524 3.04762H9.14285V1.52381H6.09524V3.04762ZM12.1905 16C11.1365 16 10.2382 15.6284 9.49562 14.8853C8.75301 14.1422 8.38146 13.2439 8.38095 12.1905C8.38044 11.137 8.752 10.2387 9.49562 9.49562C10.2392 8.75251 11.1375 8.38095 12.1905 8.38095C13.2434 8.38095 14.142 8.75251 14.8861 9.49562C15.6302 10.2387 16.0015 11.137 16 12.1905C15.9985 13.2439 15.6269 14.1425 14.8853 14.8861C14.1437 15.6297 13.2455 16.001 12.1905 16ZM12.5714 12.0381V9.90476H11.8095V12.3429L13.4476 13.981L13.9809 13.4476L12.5714 12.0381Z" fill="white"/>
</svg>
