<svg width="50" height="16" viewBox="0 0 50 16" fill="none" xmlns="http://www.w3.org/2000/svg">
<path d="M46.2958 15.7691L45.8271 13.4495H40.5896L39.7562 15.7526L35.5583 15.7608C38.2569 9.34296 40.2597 4.589 41.5667 1.49897C41.9083 0.690722 42.5146 0.278352 43.4083 0.284537C44.0917 0.290035 45.2069 0.290722 46.7542 0.286598L50 15.7629L46.2958 15.7691ZM41.7667 10.2722H45.1437L43.8833 4.45773L41.7667 10.2722ZM14.7125 0.282474L18.9333 0.286598L12.4083 15.7711L8.13542 15.767C7.06094 11.6769 5.99982 7.58345 4.95208 3.4866C4.74375 2.6701 4.33125 2.09897 3.5375 1.82887C2.82778 1.58832 1.64861 1.21649 0 0.713401V0.286598H6.74375C7.91042 0.286598 8.59167 0.845362 8.81042 1.99175C9.03125 3.14089 9.5868 6.0646 10.4771 10.7629L14.7125 0.282474ZM24.7333 0.286598L21.3979 15.7691L17.3792 15.7629L20.7083 0.282474L24.7333 0.286598ZM32.8792 0C34.0812 0 35.5958 0.371133 36.4667 0.713401L35.7625 3.92165C34.975 3.60825 33.6792 3.18557 32.5896 3.2C31.0062 3.2268 30.0271 3.88454 30.0271 4.51546C30.0271 5.54227 31.7271 6.05979 33.4771 7.18144C35.4729 8.45979 35.7375 9.60825 35.7125 10.8577C35.6854 13.4454 33.4771 16 28.8187 16C26.6937 15.9691 25.9271 15.7938 24.1937 15.1835L24.9271 11.8351C26.6917 12.5649 27.4396 12.7979 28.9479 12.7979C30.3292 12.7979 31.5146 12.2454 31.525 11.2825C31.5333 10.5979 31.1083 10.2577 29.5583 9.41237C28.0083 8.56701 25.8333 7.39381 25.8625 5.03711C25.8979 2.02268 28.7833 0 32.8792 0Z" fill="white"/>
</svg>
