<svg width="8" height="15" viewBox="0 0 8 15" fill="none" xmlns="http://www.w3.org/2000/svg">
<path d="M3.16578 15V13.2083C2.40998 13.0417 1.75772 12.7222 1.20898 12.25C0.66025 11.7778 0.257255 11.1111 0 10.25L1.58289 9.625C1.79679 10.2917 2.11422 10.7986 2.53519 11.1458C2.95615 11.4931 3.50859 11.6667 4.19251 11.6667C4.77718 11.6667 5.27287 11.5383 5.67957 11.2817C6.08627 11.025 6.28934 10.6256 6.28877 10.0833C6.28877 9.59722 6.13191 9.21194 5.81818 8.9275C5.50446 8.64306 4.77718 8.32 3.63636 7.95833C2.40998 7.58333 1.56863 7.13556 1.1123 6.615C0.655972 6.09444 0.427807 5.45889 0.427807 4.70833C0.427807 3.80556 0.727273 3.10417 1.3262 2.60417C1.92513 2.10417 2.53832 1.81944 3.16578 1.75V0H4.87701V1.75C5.59002 1.86111 6.1784 2.11472 6.64214 2.51083C7.10588 2.90694 7.44442 3.38944 7.65775 3.95833L6.07487 4.625C5.90374 4.18056 5.66132 3.84722 5.34759 3.625C5.03387 3.40278 4.60606 3.29167 4.06417 3.29167C3.43672 3.29167 2.959 3.42722 2.63102 3.69833C2.30303 3.96944 2.13904 4.30611 2.13904 4.70833C2.13904 5.16667 2.35294 5.52778 2.78075 5.79167C3.20856 6.05556 3.95009 6.33333 5.00535 6.625C5.98931 6.90278 6.73455 7.34389 7.24107 7.94833C7.74759 8.55278 8.00057 9.25056 8 10.0417C8 11.0278 7.70053 11.7778 7.1016 12.2917C6.50267 12.8056 5.76114 13.125 4.87701 13.25V15H3.16578Z" fill="white"/>
</svg>
